<mxfile host="app.diagrams.net" modified="2023-09-27T04:17:26.265Z" agent="Mozilla/5.0 (X11; Linux x86_64) AppleWebKit/537.36 (KHTML, like Gecko) Chrome/117.0.0.0 Safari/537.36" etag="GPUmg_eVePIGgdNLd1KC" version="21.8.2" type="github">
  <diagram name="Página-1" id="QfJqH4S1vQyrtwS8xRdi">
    <mxGraphModel dx="794" dy="742" grid="1" gridSize="10" guides="1" tooltips="1" connect="1" arrows="1" fold="1" page="1" pageScale="1" pageWidth="827" pageHeight="1169" math="0" shadow="0">
      <root>
        <mxCell id="0" />
        <mxCell id="1" parent="0" />
        <mxCell id="_d_M75L1oRDHBLjkqXRx-2" style="edgeStyle=orthogonalEdgeStyle;rounded=0;orthogonalLoop=1;jettySize=auto;html=1;exitX=0.5;exitY=0.5;exitDx=0;exitDy=0;exitPerimeter=0;" edge="1" parent="1" source="_d_M75L1oRDHBLjkqXRx-7" target="_d_M75L1oRDHBLjkqXRx-9">
          <mxGeometry relative="1" as="geometry" />
        </mxCell>
        <mxCell id="_d_M75L1oRDHBLjkqXRx-3" style="edgeStyle=orthogonalEdgeStyle;rounded=0;orthogonalLoop=1;jettySize=auto;html=1;exitX=0.5;exitY=0.5;exitDx=0;exitDy=0;exitPerimeter=0;" edge="1" parent="1" source="_d_M75L1oRDHBLjkqXRx-7" target="_d_M75L1oRDHBLjkqXRx-8">
          <mxGeometry relative="1" as="geometry" />
        </mxCell>
        <mxCell id="_d_M75L1oRDHBLjkqXRx-4" style="edgeStyle=orthogonalEdgeStyle;rounded=0;orthogonalLoop=1;jettySize=auto;html=1;exitX=0.5;exitY=0.5;exitDx=0;exitDy=0;exitPerimeter=0;entryX=0;entryY=0.5;entryDx=0;entryDy=0;" edge="1" parent="1" source="_d_M75L1oRDHBLjkqXRx-7" target="_d_M75L1oRDHBLjkqXRx-10">
          <mxGeometry relative="1" as="geometry" />
        </mxCell>
        <mxCell id="_d_M75L1oRDHBLjkqXRx-5" style="edgeStyle=orthogonalEdgeStyle;rounded=0;orthogonalLoop=1;jettySize=auto;html=1;exitX=0.5;exitY=0.5;exitDx=0;exitDy=0;exitPerimeter=0;entryX=0;entryY=0.5;entryDx=0;entryDy=0;" edge="1" parent="1" source="_d_M75L1oRDHBLjkqXRx-7" target="_d_M75L1oRDHBLjkqXRx-11">
          <mxGeometry relative="1" as="geometry" />
        </mxCell>
        <mxCell id="_d_M75L1oRDHBLjkqXRx-6" style="edgeStyle=orthogonalEdgeStyle;rounded=0;orthogonalLoop=1;jettySize=auto;html=1;exitX=0.5;exitY=0.5;exitDx=0;exitDy=0;exitPerimeter=0;entryX=0;entryY=0.5;entryDx=0;entryDy=0;" edge="1" parent="1" source="_d_M75L1oRDHBLjkqXRx-7" target="_d_M75L1oRDHBLjkqXRx-12">
          <mxGeometry relative="1" as="geometry" />
        </mxCell>
        <mxCell id="_d_M75L1oRDHBLjkqXRx-7" value="Gerente" style="shape=umlActor;verticalLabelPosition=bottom;verticalAlign=top;html=1;outlineConnect=0;" vertex="1" parent="1">
          <mxGeometry x="90" y="90" width="30" height="60" as="geometry" />
        </mxCell>
        <mxCell id="_d_M75L1oRDHBLjkqXRx-8" value="Cadastra os hoteis&amp;nbsp;" style="rounded=1;whiteSpace=wrap;html=1;" vertex="1" parent="1">
          <mxGeometry x="190" y="50" width="120" height="60" as="geometry" />
        </mxCell>
        <mxCell id="_d_M75L1oRDHBLjkqXRx-9" value="Cadastra os quartos" style="rounded=1;whiteSpace=wrap;html=1;" vertex="1" parent="1">
          <mxGeometry x="190" y="120" width="120" height="60" as="geometry" />
        </mxCell>
        <mxCell id="_d_M75L1oRDHBLjkqXRx-10" value="Gera as opções de reserva" style="rounded=1;whiteSpace=wrap;html=1;" vertex="1" parent="1">
          <mxGeometry x="190" y="190" width="120" height="60" as="geometry" />
        </mxCell>
        <mxCell id="_d_M75L1oRDHBLjkqXRx-11" value="Monitora reservas efetivadas" style="rounded=1;whiteSpace=wrap;html=1;" vertex="1" parent="1">
          <mxGeometry x="190" y="260" width="120" height="60" as="geometry" />
        </mxCell>
        <mxCell id="_d_M75L1oRDHBLjkqXRx-12" value="Monitora Reservas Canceladas" style="rounded=1;whiteSpace=wrap;html=1;" vertex="1" parent="1">
          <mxGeometry x="190" y="330" width="120" height="60" as="geometry" />
        </mxCell>
        <mxCell id="_d_M75L1oRDHBLjkqXRx-13" style="edgeStyle=orthogonalEdgeStyle;rounded=0;orthogonalLoop=1;jettySize=auto;html=1;exitX=0.5;exitY=0.5;exitDx=0;exitDy=0;exitPerimeter=0;" edge="1" parent="1" source="_d_M75L1oRDHBLjkqXRx-19" target="_d_M75L1oRDHBLjkqXRx-21">
          <mxGeometry relative="1" as="geometry" />
        </mxCell>
        <mxCell id="_d_M75L1oRDHBLjkqXRx-14" style="edgeStyle=orthogonalEdgeStyle;rounded=0;orthogonalLoop=1;jettySize=auto;html=1;exitX=0.5;exitY=0.5;exitDx=0;exitDy=0;exitPerimeter=0;" edge="1" parent="1" source="_d_M75L1oRDHBLjkqXRx-19" target="_d_M75L1oRDHBLjkqXRx-20">
          <mxGeometry relative="1" as="geometry" />
        </mxCell>
        <mxCell id="_d_M75L1oRDHBLjkqXRx-15" style="edgeStyle=orthogonalEdgeStyle;rounded=0;orthogonalLoop=1;jettySize=auto;html=1;exitX=0.5;exitY=0.5;exitDx=0;exitDy=0;exitPerimeter=0;entryX=1;entryY=0.5;entryDx=0;entryDy=0;" edge="1" parent="1" source="_d_M75L1oRDHBLjkqXRx-19" target="_d_M75L1oRDHBLjkqXRx-22">
          <mxGeometry relative="1" as="geometry" />
        </mxCell>
        <mxCell id="_d_M75L1oRDHBLjkqXRx-16" style="edgeStyle=orthogonalEdgeStyle;rounded=0;orthogonalLoop=1;jettySize=auto;html=1;exitX=0.5;exitY=0.5;exitDx=0;exitDy=0;exitPerimeter=0;entryX=1;entryY=0.5;entryDx=0;entryDy=0;" edge="1" parent="1" source="_d_M75L1oRDHBLjkqXRx-19" target="_d_M75L1oRDHBLjkqXRx-23">
          <mxGeometry relative="1" as="geometry" />
        </mxCell>
        <mxCell id="_d_M75L1oRDHBLjkqXRx-18" style="edgeStyle=orthogonalEdgeStyle;rounded=0;orthogonalLoop=1;jettySize=auto;html=1;exitX=0.5;exitY=0.5;exitDx=0;exitDy=0;exitPerimeter=0;entryX=1;entryY=0.5;entryDx=0;entryDy=0;" edge="1" parent="1" source="_d_M75L1oRDHBLjkqXRx-19" target="_d_M75L1oRDHBLjkqXRx-25">
          <mxGeometry relative="1" as="geometry" />
        </mxCell>
        <mxCell id="_d_M75L1oRDHBLjkqXRx-19" value="Gerente" style="shape=umlActor;verticalLabelPosition=bottom;verticalAlign=top;html=1;outlineConnect=0;" vertex="1" parent="1">
          <mxGeometry x="620" y="90" width="30" height="60" as="geometry" />
        </mxCell>
        <mxCell id="_d_M75L1oRDHBLjkqXRx-20" value="Navega nos hoteis disponíveis" style="rounded=1;whiteSpace=wrap;html=1;" vertex="1" parent="1">
          <mxGeometry x="370" y="50" width="120" height="60" as="geometry" />
        </mxCell>
        <mxCell id="_d_M75L1oRDHBLjkqXRx-21" value="Seleciona um quarto" style="rounded=1;whiteSpace=wrap;html=1;" vertex="1" parent="1">
          <mxGeometry x="370" y="120" width="120" height="60" as="geometry" />
        </mxCell>
        <mxCell id="_d_M75L1oRDHBLjkqXRx-22" value="Faz Login no sistema" style="rounded=1;whiteSpace=wrap;html=1;" vertex="1" parent="1">
          <mxGeometry x="370" y="190" width="120" height="60" as="geometry" />
        </mxCell>
        <mxCell id="_d_M75L1oRDHBLjkqXRx-23" value="Efetua a reserva" style="rounded=1;whiteSpace=wrap;html=1;" vertex="1" parent="1">
          <mxGeometry x="370" y="260" width="120" height="60" as="geometry" />
        </mxCell>
        <mxCell id="_d_M75L1oRDHBLjkqXRx-25" value="Pode posteriormente verificar seu histórico" style="rounded=1;whiteSpace=wrap;html=1;" vertex="1" parent="1">
          <mxGeometry x="370" y="330" width="120" height="60" as="geometry" />
        </mxCell>
      </root>
    </mxGraphModel>
  </diagram>
</mxfile>
